<svg fill="#B9812A" xmlns="http://www.w3.org/2000/svg" width="237" height="264" viewBox="0 0 237 264" shape-rendering="geometricPrecision">
  <path id="house-mark" d="M 183.941,186.013 C 183.304,186.162 182.656,186.265 182.005,186.322 C 181.369,186.377 180.729,186.387 180.091,186.353 C 179.770,186.353 179.441,186.306 179.123,186.266 C 178.250,186.157 177.340,185.990 176.508,185.697 C 176.042,185.533 175.592,185.259 175.379,184.795 C 175.163,184.326 175.181,183.763 175.382,183.292 C 175.551,182.894 175.858,182.542 176.247,182.349 C 176.698,182.126 177.209,182.076 177.705,182.078 C 178.359,182.080 179.021,182.075 179.671,182.000 C 180.291,181.929 180.905,181.810 181.502,181.629 C 182.395,181.359 183.252,180.974 184.046,180.485 C 184.818,180.009 185.529,179.436 186.159,178.783 C 186.781,178.138 187.324,177.415 187.770,176.637 C 188.218,175.857 188.568,175.023 188.811,174.158 C 189.058,173.279 189.193,172.370 189.212,171.458 C 189.230,170.557 189.135,169.654 188.932,168.777 C 188.825,168.313 188.687,167.857 188.520,167.411 C 188.356,166.974 188.163,166.547 187.944,166.134 C 187.729,165.728 187.487,165.336 187.221,164.960 C 186.958,164.589 186.672,164.235 186.365,163.900 C 186.060,163.567 185.734,163.253 185.390,162.961 C 185.047,162.669 184.686,162.399 184.309,162.152 C 183.933,161.906 183.542,161.682 183.138,161.484 C 182.734,161.285 182.317,161.111 181.891,160.963 C 181.462,160.815 181.025,160.694 180.581,160.600 C 180.133,160.506 179.679,160.440 179.223,160.403 C 178.362,160.330 177.494,160.368 176.641,160.504 C 176.474,160.531 176.308,160.560 176.142,160.592 C 175.992,160.622 175.830,160.678 175.678,160.677 C 175.428,160.676 175.183,160.586 175.055,160.358 C 174.925,160.124 174.983,159.819 175.178,159.639 C 175.273,159.553 175.389,159.495 175.506,159.445 C 175.909,159.269 176.327,159.134 176.757,159.044 C 178.000,158.784 179.265,158.587 180.538,158.554 C 180.722,158.549 180.907,158.550 181.092,158.550 C 181.169,158.551 181.246,158.555 181.323,158.558 C 181.781,158.575 182.238,158.615 182.692,158.678 C 183.142,158.740 183.589,158.824 184.031,158.930 C 184.470,159.035 184.903,159.162 185.330,159.310 C 185.754,159.456 186.172,159.624 186.580,159.811 C 186.988,159.997 187.386,160.204 187.774,160.428 C 188.161,160.653 188.538,160.896 188.902,161.157 C 189.267,161.418 189.619,161.697 189.957,161.992 C 190.295,162.288 190.620,162.600 190.928,162.927 C 191.239,163.256 191.533,163.600 191.809,163.957 C 192.088,164.317 192.349,164.691 192.590,165.077 C 192.835,165.467 193.059,165.869 193.263,166.281 C 193.470,166.700 193.656,167.128 193.820,167.565 C 193.986,168.010 194.130,168.463 194.250,168.923 C 194.285,169.055 194.318,169.189 194.349,169.322 C 196.086,176.807 191.425,184.281 183.941,186.013 M 170.770,179.019 C 170.639,179.885 170.479,180.741 170.304,181.592 C 169.878,183.665 169.343,185.703 168.702,187.690 C 161.043,211.600 138.630,228.911 112.177,228.911 C 100.742,228.911 90.064,225.677 81.003,220.070 C 68.182,212.141 58.605,199.470 54.725,184.496 C 53.489,179.725 52.828,174.719 52.828,169.563 C 52.828,165.553 53.223,161.633 53.989,157.848 C 54.054,157.489 54.129,157.135 54.209,156.780 C 54.300,156.373 54.495,155.986 54.805,155.706 C 55.120,155.420 55.511,155.205 55.957,155.100 C 56.981,154.864 58.005,155.277 58.590,156.068 C 58.850,156.419 58.964,156.859 58.970,157.296 C 58.975,157.630 58.981,157.964 58.995,158.294 C 59.506,174.043 66.154,188.246 76.627,198.579 C 84.838,206.679 96.107,210.779 107.616,209.973 C 108.247,209.933 108.878,209.878 109.508,209.813 C 113.934,209.362 118.169,207.785 121.829,205.257 C 121.904,205.207 121.974,205.157 122.034,205.117 C 122.399,204.871 122.755,204.616 123.100,204.351 C 138.539,192.361 143.115,176.146 141.408,155.825 C 141.408,155.785 141.403,155.740 141.398,155.700 C 141.398,155.655 141.393,155.610 141.388,155.565 C 141.378,155.460 141.358,155.350 141.333,155.240 C 141.063,154.068 140.125,153.076 138.995,153.062 C 138.714,153.058 138.474,153.058 138.139,153.062 L 108.888,153.062 L 108.706,153.061 C 105.051,152.878 102.975,151.760 102.284,148.782 C 101.583,145.743 103.446,142.590 106.510,142.003 C 106.875,141.933 106.976,141.913 107.299,141.882 C 107.309,141.881 107.646,141.872 107.797,141.868 C 108.180,141.860 108.257,141.872 108.695,141.878 L 109.515,141.893 L 163.776,141.893 C 164.151,141.893 164.552,141.963 164.817,142.229 C 164.957,142.374 165.158,142.794 165.193,142.874 C 168.322,148.977 170.264,155.375 171.105,162.479 C 171.130,162.674 171.155,162.874 171.170,163.069 C 171.405,165.202 171.526,167.370 171.526,169.563 C 171.526,172.782 171.270,175.940 170.770,179.019 M 105.356,96.409 L 106.200,95.098 C 107.444,93.167 110.041,92.605 111.972,93.849 L 131.864,106.662 C 133.795,107.906 134.357,110.503 133.113,112.434 L 132.269,113.744 C 131.025,115.675 128.428,116.237 126.498,114.994 L 121.096,111.514 C 119.945,110.854 118.778,110.753 117.626,110.965 C 116.133,111.577 113.829,110.421 113.827,108.546 C 113.673,107.414 113.047,106.401 112.103,105.757 L 111.179,105.126 L 106.605,102.180 C 104.675,100.936 104.112,98.339 105.356,96.409 M 110.021,84.485 L 110.865,83.174 C 112.109,81.243 114.706,80.681 116.636,81.925 L 142.020,98.275 C 143.950,99.519 144.512,102.116 143.269,104.047 L 142.425,105.357 C 141.181,107.288 138.584,107.850 136.653,106.607 L 111.270,90.256 C 109.339,89.012 108.777,86.415 110.021,84.485 M 115.260,72.410 L 116.105,71.099 C 117.348,69.168 119.945,68.606 121.876,69.850 L 151.411,88.874 C 153.341,90.118 153.903,92.715 152.660,94.646 L 151.816,95.956 C 150.572,97.887 147.975,98.449 146.044,97.205 L 116.510,78.181 C 114.579,76.937 114.017,74.340 115.260,72.410 M 127.008,64.465 L 127.852,63.154 C 129.095,61.223 131.693,60.661 133.623,61.905 L 153.695,74.834 C 155.625,76.077 156.188,78.674 154.944,80.605 L 154.100,81.916 C 152.856,83.846 150.259,84.408 148.328,83.165 L 128.257,70.236 C 126.326,68.992 125.764,66.395 127.008,64.465 M 226.126,92.565 L 172.751,48.282 C 169.996,45.996 165.899,46.430 163.684,49.242 L 150.731,65.683 C 149.310,67.487 146.672,67.800 144.868,66.379 L 143.643,65.414 C 141.839,63.993 141.526,61.354 142.947,59.550 L 156.254,42.659 C 158.392,39.946 157.976,36.024 155.319,33.819 L 126.502,9.911 C 121.805,6.014 114.998,6.014 110.301,9.911 L 10.678,92.565 C 7.772,94.976 6.092,98.554 6.092,102.329 L 6.092,245.119 C 6.092,252.125 11.772,257.805 18.778,257.805 L 218.025,257.805 C 225.032,257.805 230.712,252.125 230.712,245.119 L 230.712,102.329 C 230.712,98.554 229.031,94.976 226.126,92.565" stroke="none"/>
</svg>
