<?xml version="1.0" encoding="UTF-8"?>
<!-- Generated by Pixelmator Pro 4.3 -->
<svg fill="#EDD793" viewBox="0 0 1364 816" xmlns="http://www.w3.org/2000/svg">
    <g id="Group">
        <g id="g1">
            <path id="Path" stroke="none" d="M 288.786621 2.343018 L 288.786621 128.702026 L 159.173096 128.702026 C 151.620605 128.702026 144.1698 131.525879 139.072632 137.098389 C 136.673584 139.7229 134.727051 142.772705 133.3573 146.129639 C 132.682373 147.773438 132.133789 149.502808 131.754028 151.317627 C 131.290039 153.427368 131.036865 155.577881 131.036865 157.815796 C 131.036865 158.831055 131.086426 159.83606 131.18335 160.826904 C 132.550781 174.812012 145.087891 185.070068 159.140747 185.070068 L 288.786621 185.070068 L 288.786621 311.471802 L 142.069092 311.471802 C 114.762329 311.471802 87.881714 303.291016 65.912964 287.073975 C 65.766113 286.964111 65.619507 286.856323 65.473145 286.748535 C 26.48938 257.679443 1.259399 211.227661 1.259399 158.869629 C 1.259399 106.511719 26.48938 60.102539 65.473145 31.031494 C 67.05542 29.855591 68.659912 28.706055 70.286499 27.585083 C 94.871094 10.662109 124.368652 2.343018 154.215088 2.343018 L 288.786621 2.343018 Z"/>
        </g>
        <g id="g2">
            <path id="path1" stroke="none" d="M 627.162354 182.579834 L 590.499023 39.724976 L 582.356201 8.080322 L 408.827271 8.080322 L 397.351685 52.76001 L 364.02124 182.579834 L 331.450439 309.532959 L 331.450439 311.471802 L 453.169434 311.471802 L 460.713379 272.531372 L 528.858887 272.531372 L 538.815918 311.388428 L 538.85791 311.471802 L 660.281738 311.471802 L 627.162354 182.579834 Z M 469.159668 182.748657 L 469.20166 182.579834 L 484.348145 129.800659 L 488.482666 115.371948 L 494.848145 93.199951 C 495.177979 92.050415 496.806396 92.05249 497.135742 93.199951 L 503.502686 115.412598 L 507.637207 129.800659 L 522.783691 182.579834 L 522.825928 182.748657 L 469.159668 182.748657 Z"/>
        </g>
        <g id="g3">
            <path id="path2" stroke="none" d="M 1328.945068 179.711182 L 1292.281738 36.856323 L 1284.138916 5.21167 L 1110.610107 5.21167 L 1099.134521 49.891357 L 1065.803955 179.711182 L 1033.233154 306.664307 L 1033.233154 308.603149 L 1154.952148 308.603149 L 1162.496094 269.66272 L 1230.641602 269.66272 L 1240.598633 308.519775 L 1240.640625 308.603149 L 1362.064941 308.603149 L 1328.945068 179.711182 Z M 1170.942383 179.880005 L 1170.984619 179.711182 L 1186.131104 126.932007 L 1190.265625 112.503296 L 1196.630859 90.331299 C 1196.960693 89.181763 1198.589111 89.183838 1198.918701 90.331299 L 1205.2854 112.543945 L 1209.420166 126.932007 L 1224.566406 179.711182 L 1224.608643 179.880005 L 1170.942383 179.880005 Z"/>
        </g>
        <g id="g4">
            <path id="path3" stroke="none" d="M 1005.014893 216.250854 C 1005.014893 247.586304 989.147949 277.467041 963.218262 295.057373 C 947.387695 305.795532 928.411865 311.225586 909.351074 311.518555 C 900.546387 311.654907 891.707764 311.431152 882.898438 311.431152 C 860.025146 311.431152 837.1521 311.431152 814.278809 311.431152 C 790.518555 311.431152 766.758545 311.431152 742.998291 311.431152 C 731.477539 311.431152 719.957031 311.431152 708.374512 311.431152 L 708.374512 224.181396 L 865.572021 224.181396 C 872.07959 224.181396 878.001465 219.534546 878.723145 213.066895 C 878.72876 213.018066 878.734131 212.967163 878.739258 212.91626 C 878.78125 212.452393 878.823242 211.988525 878.823242 211.484009 C 878.823242 210.977417 878.78125 210.51355 878.739258 210.047607 C 878.335938 205.604248 875.587891 201.665527 871.712646 199.445801 C 867.026367 196.764404 861.992676 197.602539 856.841064 197.602539 C 853.194092 197.602539 849.547119 197.602539 845.900146 197.602539 C 831.220947 197.602539 816.544678 197.95459 801.865967 197.960693 C 794.614746 197.962646 787.352051 197.793823 780.162598 196.762329 C 773.295898 195.775635 766.643799 193.598633 760.287109 190.843994 C 758.578125 190.103394 756.889648 189.31604 755.222168 188.485962 C 746.105225 183.953125 737.73584 177.941162 730.513916 170.765381 C 723.290283 163.587646 717.225098 155.252319 712.62793 146.164185 C 707.922119 136.860352 704.773193 126.787598 703.337891 116.462402 C 702.728271 112.07605 702.425537 107.648926 702.425537 103.221924 C 702.425293 72.272949 717.911133 42.72583 743.312256 25.056152 C 770.434326 6.190186 802.118408 8.039551 833.51123 8.039551 C 859.291992 8.039551 885.072754 8.039551 910.853516 8.039551 C 933.770752 8.039551 956.687744 8.039551 979.604492 8.039551 C 985.065186 8.039551 990.525635 8.039551 995.98584 8.039551 L 995.98584 95.291382 L 842.96167 95.291382 C 835.789551 95.291382 829.924805 101.112061 829.924805 108.326416 C 829.924805 114.130859 833.997559 119.416504 839.667969 120.708496 C 844.144043 121.727783 848.828125 121.202881 853.370117 121.094971 C 860.6521 120.924072 867.934082 121.027832 875.217285 121.027832 C 882.539551 121.027832 889.859375 120.909912 897.181396 120.893555 C 904.360352 120.877319 911.547607 120.83252 918.707275 121.453125 C 920.138428 121.577148 921.563477 121.741943 922.988037 121.927124 C 928.675781 122.712402 934.291504 124.014526 939.743652 125.815063 C 945.087646 127.581055 950.272949 129.827148 955.218506 132.514648 C 960.112549 135.173828 964.770996 138.26416 969.125488 141.737061 C 973.465088 145.197754 977.502197 149.036865 981.176758 153.19751 C 983.735107 156.094604 986.118164 159.144287 988.307373 162.330322 C 998.854736 177.646118 1005.014893 196.251709 1005.014893 216.250854 Z"/>
        </g>
        <g id="g5">
            <path id="path4" stroke="none" d="M 228.217773 495.761353 L 276.967896 359.13623 L 277.009277 359.012085 L 455.134277 359.012085 L 455.134277 684.886963 L 327.842651 684.886963 L 327.842651 524.887329 L 328.009521 524.429565 L 327.842651 524.429565 L 327.842651 524.887329 L 291.842651 625.721436 L 274.147583 675.218994 C 272.074585 681.017334 266.581299 684.886963 260.423462 684.886963 L 199.226074 684.886963 C 193.153198 684.886963 187.716797 681.121094 185.581787 675.436646 L 168.563477 630.118042 L 128.55127 529.261475 L 128.55127 528.679688 L 128.342651 528.679688 L 128.55127 529.261475 L 128.55127 684.886963 L 1.259399 684.886963 L 1.259399 359.012085 L 179.384399 359.012085 L 180.092896 361.011963 L 228.217773 495.761353"/>
            <path id="path5" stroke="none" d="M 456.176025 685.930664 L 326.801758 685.930664 L 326.801758 530.901367 L 275.127441 675.566895 C 272.913818 681.763916 267.005615 685.930664 260.424072 685.930664 L 199.226074 685.930664 C 192.756348 685.930664 186.882813 681.861572 184.608154 675.802856 L 167.5896 630.482178 L 129.59314 534.709961 L 129.59314 685.930664 L 0.216919 685.930664 L 0.216919 357.968384 L 180.120117 357.968384 L 181.076294 360.662109 L 228.217773 492.664795 L 276.234131 358.094482 L 277.009277 357.968384 L 456.176025 357.968384 L 456.176025 685.930664 Z M 328.885132 683.84729 L 454.092529 683.84729 L 454.092529 360.051758 L 277.743774 360.051758 L 228.217773 498.85791 L 178.647095 360.051758 L 2.300293 360.051758 L 2.300293 683.84729 L 127.509766 683.84729 L 127.509766 529.44458 L 126.858765 527.637939 L 129.383545 527.637939 L 129.59314 529.062134 L 169.532471 629.733521 L 186.557251 675.070435 C 188.528687 680.319458 193.619019 683.84729 199.226074 683.84729 L 260.424072 683.84729 C 266.126709 683.84729 271.247559 680.238037 273.166138 674.866943 L 326.801758 524.431641 L 326.801758 523.389893 L 329.334717 523.389893 L 328.885132 525.070435 L 328.885132 683.84729 Z"/>
        </g>
        <g id="g6">
            <path id="path6" stroke="none" d="M 659.049561 684.897095 L 522.825928 684.897095 L 522.825928 453.699951 L 659.049561 453.699951 L 659.049561 684.897095 Z"/>
        </g>
        <g id="g7">
            <path id="path7" stroke="none" d="M 1361.938477 568.59668 L 1361.938477 684.886963 L 1078.771973 684.886963 L 1078.771973 359.012085 L 1214.980225 359.012085 L 1214.980225 566.20813 C 1214.980225 567.528564 1216.049805 568.59668 1217.369141 568.59668 L 1361.938477 568.59668 Z"/>
        </g>
        <g id="g8">
            <path id="path8" stroke="none" d="M 840.977051 465.36792 L 840.977051 466.116577 C 840.977051 472.480469 846.135254 477.637939 852.498047 477.637939 L 977.185303 477.637939 L 977.185303 567.011719 L 852.498047 567.011719 C 846.135254 567.011719 840.977051 572.171265 840.977051 578.533203 L 840.977051 578.533203 C 840.977051 584.897095 846.135254 590.054565 852.498047 590.054565 L 1013.310303 590.054565 L 1013.310303 684.886963 L 704.768555 684.886963 L 704.768555 359.012085 L 1013.310303 359.012085 L 1013.310303 453.846436 L 852.498047 453.846436 C 846.135254 453.846436 840.977051 459.005981 840.977051 465.36792 Z"/>
        </g>
        <g id="g9">
            <g id="g10">
                <path id="path9" stroke="none" d="M 661.327881 402.853638 C 660.698486 403.002197 660.051758 403.10791 659.404541 403.160889 C 658.775391 403.213745 658.140137 403.225952 657.505127 403.189331 C 657.1875 403.189331 656.858154 403.148682 656.546143 403.10791 C 655.675781 402.996094 654.775879 402.831299 653.946777 402.542358 C 653.481934 402.377563 653.034912 402.106934 652.823242 401.643066 C 652.611572 401.179199 652.62915 400.619751 652.829102 400.155884 C 652.999756 399.755127 653.299805 399.407227 653.687744 399.213867 C 654.134766 398.996216 654.646484 398.943359 655.134521 398.949463 C 655.787598 398.949463 656.440186 398.943359 657.087402 398.87207 C 657.704834 398.796875 658.316406 398.678833 658.904785 398.501831 C 659.792725 398.231201 660.645508 397.848755 661.433594 397.366577 C 662.198242 396.890503 662.904053 396.326904 663.533447 395.673828 C 664.150879 395.032959 664.686035 394.314819 665.133057 393.543701 C 665.574219 392.768555 665.927002 391.938477 666.168213 391.079956 C 666.409424 390.209229 666.544678 389.303833 666.5625 388.398438 C 666.579834 387.503296 666.48584 386.610107 666.285889 385.73938 C 666.180176 385.275513 666.044922 384.821777 665.874268 384.380371 C 665.715332 383.944946 665.52124 383.521729 665.303711 383.116943 C 665.092041 382.709961 664.85083 382.323486 664.586182 381.945068 C 664.327393 381.580811 664.039063 381.228882 663.733398 380.893188 C 663.433594 380.563599 663.109863 380.252319 662.768799 379.963379 C 662.427734 379.676514 662.068848 379.406006 661.692627 379.157715 C 661.322021 378.917725 660.933838 378.693848 660.533936 378.492432 C 660.12793 378.299194 659.716309 378.122192 659.292725 377.975708 C 658.869385 377.829224 658.434326 377.711182 657.993164 377.617676 C 657.546143 377.524048 657.099121 377.458984 656.64624 377.422363 C 655.787598 377.347046 654.928711 377.387695 654.082031 377.524048 C 653.911377 377.546387 653.746826 377.574951 653.582031 377.611572 C 653.435059 377.640015 653.276367 377.692871 653.123291 377.692871 C 652.876221 377.692871 652.62915 377.605469 652.505615 377.375488 C 652.376221 377.147705 652.435059 376.840454 652.62915 376.663452 C 652.723145 376.575928 652.834961 376.523071 652.952637 376.470215 C 653.352539 376.293213 653.770264 376.165039 654.193604 376.071411 C 655.428711 375.811035 656.6875 375.617676 657.951904 375.587158 C 658.134277 375.58313 658.316406 375.58313 658.498779 375.58313 C 658.575439 375.58313 658.651611 375.587158 658.728271 375.587158 C 659.187012 375.605469 659.639893 375.64624 660.086914 375.711304 C 660.533936 375.770264 660.980713 375.85376 661.416016 375.959473 C 661.851318 376.065308 662.286621 376.187378 662.709961 376.335938 C 663.127686 376.482422 663.545166 376.647217 663.950928 376.834351 C 664.356689 377.017456 664.750977 377.2229 665.133057 377.446777 C 665.52124 377.670532 665.891846 377.910645 666.256348 378.171021 C 666.615234 378.429443 666.968262 378.706055 667.303467 378.999023 C 667.638672 379.294067 667.962158 379.605347 668.268066 379.928833 C 668.57373 380.258423 668.86792 380.598145 669.144531 380.952148 C 669.420654 381.310303 669.679443 381.680542 669.920654 382.062988 C 670.161621 382.45166 670.385254 382.852417 670.585205 383.257324 C 670.791016 383.674316 670.979248 384.099609 671.137939 384.532959 C 671.302734 384.974365 671.449707 385.428101 671.567383 385.879761 C 671.602539 386.016113 671.63208 386.14624 671.66748 386.280518 C 673.390625 393.7146 668.761963 401.136475 661.327881 402.853638 Z"/>
            </g>
            <g id="g11">
                <path id="path10" stroke="none" d="M 649.000244 386.516602 C 649.000244 389.714844 648.747559 392.849976 648.247559 395.907837 C 648.118164 396.766357 647.959473 397.62085 647.788818 398.467285 C 647.365234 400.526123 646.830078 402.548462 646.194824 404.517822 C 638.590332 428.262573 616.328857 445.454102 590.0625 445.454102 C 578.705322 445.454102 568.101074 442.241699 559.102295 436.679321 C 546.375 428.803711 536.864746 416.216309 533.006592 401.348145 C 531.783203 396.607666 531.124268 391.639404 531.124268 386.516602 C 531.124268 382.535034 531.518555 378.640991 532.2771 374.883301 C 532.342041 374.529297 532.418213 374.177246 532.494873 373.823242 C 532.588867 373.418457 532.782959 373.035889 533.088867 372.759277 C 533.400391 372.47644 533.788818 372.258789 534.229736 372.152954 C 535.247314 371.923096 536.264893 372.329956 536.847168 373.11731 C 537.105713 373.46521 537.217773 373.900635 537.223633 374.335938 C 537.229492 374.669678 537.235352 374.999268 537.246826 375.328857 C 537.758545 390.968018 544.35791 405.071289 554.761963 415.335327 C 562.913818 423.375732 574.105957 427.450806 585.533691 426.651245 C 586.157227 426.610596 586.786377 426.557617 587.409912 426.492554 C 591.809082 426.038818 596.014404 424.474365 599.648926 421.963745 C 599.719727 421.916992 599.790527 421.864014 599.849121 421.827393 C 600.213867 421.581299 600.56665 421.328979 600.907959 421.064453 C 616.240723 409.158569 620.787109 393.05542 619.093018 372.877197 C 619.093018 372.836548 619.087158 372.793823 619.081299 372.753174 C 619.081299 372.706299 619.075439 372.665649 619.06958 372.618896 C 619.063721 372.513062 619.040039 372.407227 619.016846 372.29541 C 618.746094 371.129639 617.816895 370.146973 616.693604 370.130615 L 586.615723 370.130615 C 582.986816 369.94751 580.922607 368.842773 580.240234 365.884644 C 579.540527 362.867432 581.393066 359.7323 584.434082 359.150391 C 584.79834 359.079224 584.898438 359.060913 585.216064 359.032471 C 585.228027 359.032471 585.563232 359.020264 585.710205 359.01416 C 586.092285 359.008057 586.168945 359.020264 586.604004 359.026367 L 587.421631 359.044678 L 641.301514 359.044678 C 641.677979 359.044678 642.072021 359.107666 642.33667 359.372192 C 642.478027 359.520752 642.677734 359.937744 642.713135 360.013062 C 645.818604 366.077881 647.747559 372.429688 648.582764 379.481201 C 648.606445 379.676514 648.629639 379.875977 648.647461 380.069214 C 648.882813 382.187134 649.000244 384.3396 649.000244 386.516602 Z"/>
            </g>
        </g>
        <g id="g12">
            <path id="path11" stroke="none" d="M 7.036621 745.346313 C 11.125977 738.37207 16.680176 732.927734 23.699219 729.009277 C 30.716187 725.09082 38.400513 723.129517 46.75415 723.129517 C 56.312256 723.129517 64.816528 725.477295 72.264893 730.168945 C 79.713135 734.864502 85.116821 741.517334 88.47583 750.127441 L 70.779663 750.127441 C 68.454224 745.651489 65.225464 742.270142 61.091309 739.987427 C 56.959229 737.704712 52.180176 736.56543 46.75415 736.56543 C 40.813477 736.56543 35.517578 737.900024 30.866699 740.569336 C 26.217896 743.238525 22.578125 747.026855 19.953613 751.934082 C 17.325073 756.841309 16.012817 762.525635 16.012817 768.983154 C 16.012817 775.444824 17.325073 781.149536 19.953613 786.097412 C 22.578125 791.053467 26.217896 794.862061 30.866699 797.531372 C 35.517578 800.200684 40.813477 801.535278 46.75415 801.535278 C 52.180176 801.535278 56.959229 800.395996 61.091309 798.113281 C 65.225464 795.830566 68.454224 792.449219 70.779663 787.973267 L 88.47583 787.973267 C 85.116821 796.583252 79.713135 803.21582 72.264893 807.862549 C 64.816528 812.513428 56.312256 814.836853 46.75415 814.836853 C 38.315063 814.836853 30.608398 812.879639 23.634033 808.961182 C 16.65979 805.042725 11.125977 799.598389 7.036621 792.620117 C 2.94519 785.645752 0.900513 777.768188 0.900513 768.983154 C 0.900513 760.202271 2.94519 752.320557 7.036621 745.346313 Z"/>
            <path id="path12" stroke="none" d="M 159.775024 795.720703 L 122.1875 795.720703 L 115.72998 814.063782 L 100.359375 814.063782 L 132.520752 724.163086 L 149.572021 724.163086 L 181.733398 814.063782 L 166.232544 814.063782 L 159.775024 795.720703 Z M 155.771118 784.225708 L 141.04541 741.98938 L 126.191406 784.225708 L 155.771118 784.225708 Z"/>
            <path id="path13" stroke="none" d="M 248.51001 724.293213 L 248.51001 735.788208 L 210.405762 735.788208 L 210.405762 763.04248 L 240.113525 763.04248 L 240.113525 774.411255 L 210.405762 774.411255 L 210.405762 814.063782 L 195.682007 814.063782 L 195.682007 724.293213 L 248.51001 724.293213 Z"/>
            <path id="path14" stroke="none" d="M 276.927979 735.657959 L 276.927979 762.912231 L 307.927734 762.912231 L 307.927734 774.281006 L 276.927979 774.281006 L 276.927979 802.568848 L 311.803467 802.568848 L 311.803467 814.063782 L 262.204224 814.063782 L 262.204224 724.163086 L 311.803467 724.163086 L 311.803467 735.657959 L 276.927979 735.657959 Z M 299.661499 705.046875 L 271.115356 719.12561 L 271.115356 708.277588 L 299.661499 692.518311 L 299.661499 705.046875 Z"/>
            <path id="path15" stroke="none" d="M 427.404053 814.063782 L 415.648682 798.174316 C 413.839844 803.085571 410.653809 807.134277 406.090576 810.316162 C 401.525146 813.506287 396.404297 815.09729 390.719849 815.09729 C 385.725098 815.09729 381.161743 813.933533 377.027588 811.610107 C 372.895508 809.282715 369.62207 806.035645 367.211182 801.856689 C 364.800293 797.681885 363.595825 793.010742 363.595825 787.843018 C 363.595825 782.935791 364.670044 778.480225 366.824585 774.47229 C 368.975098 770.468384 371.882324 767.306763 375.54248 764.979248 C 379.202515 762.655884 383.22876 761.361938 387.619263 761.105591 L 386.844116 760.072021 C 383.916504 756.198364 381.743652 752.690918 380.321533 749.545532 C 378.901367 746.404297 378.191406 743.238525 378.191406 740.05249 C 378.191406 736.264282 379.137451 732.732422 381.031494 729.460938 C 382.925659 726.189453 385.702759 723.540527 389.362793 721.51416 C 393.022949 719.491821 397.350342 718.478638 402.344971 718.478638 C 407.337646 718.478638 411.665039 719.451172 415.327148 721.387939 C 418.985107 723.324829 421.784668 725.863892 423.721436 729.009277 C 425.6604 732.150513 426.628906 735.487061 426.628906 739.019043 C 426.628906 741.427856 426.240234 743.625122 425.465088 745.606689 L 410.999756 745.606689 C 411.6875 744.056396 412.033203 742.335205 412.033203 740.439087 C 412.033203 737.684326 411.12793 735.401611 409.319336 733.590942 C 407.51062 731.784302 405.187256 730.880981 402.344971 730.880981 C 399.588257 730.880981 397.327881 731.784302 395.563965 733.590942 C 393.798096 735.401611 392.915039 737.639648 392.915039 740.308838 C 392.915039 742.119629 393.258911 743.885498 393.948608 745.606689 C 394.638306 747.327881 395.928223 749.39502 397.824341 751.803833 L 444.969971 814.063782 L 427.404053 814.063782 Z M 400.988037 798.499756 C 403.7854 795.529419 405.187256 791.932373 405.187256 787.712891 C 405.187256 783.497314 403.7854 779.920654 400.988037 776.990967 C 398.188477 774.06543 394.809204 772.600586 390.850098 772.600586 C 386.801392 772.600586 383.422119 774.06543 380.710083 776.990967 C 377.996094 779.920654 376.641113 783.497314 376.641113 787.712891 C 376.641113 792.021973 378.016357 795.639282 380.773193 798.564941 C 383.529907 801.490479 386.886841 802.955322 390.850098 802.955322 C 394.809204 802.955322 398.188477 801.470215 400.988037 798.499756 Z"/>
            <path id="path16" stroke="none" d="M 509.549072 735.657959 L 509.549072 762.912231 L 540.548828 762.912231 L 540.548828 774.281006 L 509.549072 774.281006 L 509.549072 802.568848 L 544.424561 802.568848 L 544.424561 814.063782 L 494.825439 814.063782 L 494.825439 724.163086 L 544.424561 724.163086 L 544.424561 735.657959 L 509.549072 735.657959 Z"/>
            <path id="path17" stroke="none" d="M 604.226807 769.243652 L 632.128174 814.063782 L 615.59375 814.063782 L 595.315674 781.515747 L 576.327637 814.063782 L 559.793213 814.063782 L 587.69458 769.243652 L 559.793213 724.293213 L 576.327637 724.293213 L 596.605713 756.971436 L 615.723877 724.293213 L 632.256348 724.293213 L 604.226807 769.243652 Z"/>
            <path id="path18" stroke="none" d="M 708.33667 763.945801 C 706.182129 767.994385 702.737549 771.290283 698.003418 773.829346 C 693.264893 776.368408 687.194092 777.637939 679.790527 777.637939 L 663.514404 777.637939 L 663.514404 814.063782 L 648.790771 814.063782 L 648.790771 724.293213 L 679.790527 724.293213 C 686.677246 724.293213 692.512207 725.477295 697.29126 727.845459 C 702.070313 730.213623 705.642822 733.420044 708.013184 737.46875 C 710.37915 741.517334 711.56543 746.038086 711.56543 751.030762 C 711.56543 755.596191 710.487061 759.901123 708.33667 763.945801 Z M 692.318848 762.13916 C 695.07373 759.469849 696.453125 755.76709 696.453125 751.030762 C 696.453125 746.208984 695.07373 742.461426 692.318848 739.792114 C 689.562256 737.122803 685.387451 735.788208 679.790527 735.788208 L 663.514404 735.788208 L 663.514404 766.143066 L 679.790527 766.143066 C 685.387451 766.143066 689.562256 764.80835 692.318848 762.13916 Z"/>
            <path id="path19" stroke="none" d="M 740.882568 735.657959 L 740.882568 762.912231 L 771.882324 762.912231 L 771.882324 774.281006 L 740.882568 774.281006 L 740.882568 802.568848 L 775.758057 802.568848 L 775.758057 814.063782 L 726.158936 814.063782 L 726.158936 724.163086 L 775.758057 724.163086 L 775.758057 735.657959 L 740.882568 735.657959 Z"/>
            <path id="path20" stroke="none" d="M 840.986328 814.063782 L 820.319824 778.154785 L 809.081299 778.154785 L 809.081299 814.063782 L 794.357422 814.063782 L 794.357422 724.293213 L 825.357178 724.293213 C 832.244141 724.293213 838.079102 725.501709 842.858154 727.910645 C 847.637207 730.319458 851.209717 733.550293 853.579834 737.598877 C 855.946045 741.647583 857.13208 746.168213 857.13208 751.160889 C 857.13208 757.016235 855.431396 762.334473 852.029541 767.11145 C 848.625977 771.892578 843.395264 775.143677 836.335449 776.864868 L 858.552246 814.063782 L 840.986328 814.063782 Z M 809.081299 766.529541 L 825.357178 766.529541 C 830.866699 766.529541 835.02124 765.154297 837.820557 762.395508 C 840.618164 759.640747 842.019775 755.897217 842.019775 751.160889 C 842.019775 746.339111 840.640381 742.571289 837.885742 739.857178 C 835.128906 737.143188 830.954102 735.788208 825.357178 735.788208 L 809.081299 735.788208 L 809.081299 766.529541 Z"/>
            <path id="path21" stroke="none" d="M 891.228516 724.293213 L 891.228516 814.063782 L 876.504639 814.063782 L 876.504639 724.293213 L 891.228516 724.293213 Z"/>
            <path id="path22" stroke="none" d="M 925.845459 735.657959 L 925.845459 762.912231 L 956.845215 762.912231 L 956.845215 774.281006 L 925.845459 774.281006 L 925.845459 802.568848 L 960.720947 802.568848 L 960.720947 814.063782 L 911.121826 814.063782 L 911.121826 724.163086 L 960.720947 724.163086 L 960.720947 735.657959 L 925.845459 735.657959 Z"/>
            <path id="path23" stroke="none" d="M 1053.073242 814.063782 L 1038.349609 814.063782 L 994.044189 747.026855 L 994.044189 814.063782 L 979.320557 814.063782 L 979.320557 724.163086 L 994.044189 724.163086 L 1038.349609 791.073853 L 1038.349609 724.163086 L 1053.073242 724.163086 L 1053.073242 814.063782 Z"/>
            <path id="path24" stroke="none" d="M 1074.191406 745.346313 C 1078.280762 738.37207 1083.834961 732.927734 1090.854004 729.009277 C 1097.871094 725.09082 1105.55542 723.129517 1113.90918 723.129517 C 1123.467285 723.129517 1131.971436 725.477295 1139.419678 730.168945 C 1146.868164 734.864502 1152.271729 741.517334 1155.630615 750.127441 L 1137.93457 750.127441 C 1135.609131 745.651489 1132.380371 742.270142 1128.246338 739.987427 C 1124.114258 737.704712 1119.335205 736.56543 1113.90918 736.56543 C 1107.968262 736.56543 1102.672607 737.900024 1098.021729 740.569336 C 1093.372803 743.238525 1089.733154 747.026855 1087.108643 751.934082 C 1084.47998 756.841309 1083.167725 762.525635 1083.167725 768.983154 C 1083.167725 775.444824 1084.47998 781.149536 1087.108643 786.097412 C 1089.733154 791.053467 1093.372803 794.862061 1098.021729 797.531372 C 1102.672607 800.200684 1107.968262 801.535278 1113.90918 801.535278 C 1119.335205 801.535278 1124.114258 800.395996 1128.246338 798.113281 C 1132.380371 795.830566 1135.609131 792.449219 1137.93457 787.973267 L 1155.630615 787.973267 C 1152.271729 796.583252 1146.868164 803.21582 1139.419678 807.862549 C 1131.971436 812.513428 1123.467285 814.836853 1113.90918 814.836853 C 1105.469971 814.836853 1097.763184 812.879639 1090.789063 808.961182 C 1083.814697 805.042725 1078.280762 799.598389 1074.191406 792.620117 C 1070.100098 785.645752 1068.05542 777.768188 1068.05542 768.983154 C 1068.05542 760.202271 1070.100098 752.320557 1074.191406 745.346313 Z"/>
            <path id="path25" stroke="none" d="M 1188.050537 724.293213 L 1188.050537 814.063782 L 1173.326904 814.063782 L 1173.326904 724.293213 L 1188.050537 724.293213 Z"/>
            <path id="path26" stroke="none" d="M 1262.061768 795.720703 L 1224.474365 795.720703 L 1218.016846 814.063782 L 1202.645996 814.063782 L 1234.807617 724.163086 L 1251.858643 724.163086 L 1284.020264 814.063782 L 1268.519287 814.063782 L 1262.061768 795.720703 Z M 1258.057861 784.225708 L 1243.332031 741.98938 L 1228.478271 784.225708 L 1258.057861 784.225708 Z"/>
            <path id="path27" stroke="none" d="M 1311.79126 811.801392 C 1306.967285 809.693604 1303.179199 806.702881 1300.424316 802.825195 C 1297.667725 798.951416 1296.290283 794.430786 1296.290283 789.263184 L 1312.049561 789.263184 C 1312.391357 793.311768 1313.921387 796.628052 1316.635254 799.207764 C 1319.347412 801.791626 1323.157959 803.085571 1328.065186 803.085571 C 1333.145264 803.085571 1337.108643 801.81604 1339.94873 799.272949 C 1342.791016 796.733887 1344.210938 793.442017 1344.210938 789.393311 C 1344.210938 786.378174 1343.328125 783.924561 1341.564209 782.028442 C 1339.798096 780.136353 1337.603027 778.671509 1334.976318 777.637939 C 1332.3479 776.604492 1328.712158 775.485474 1324.061279 774.281006 C 1318.203857 772.730713 1313.447266 771.160156 1309.789307 769.565063 C 1306.127197 767.974121 1303.008301 765.496094 1300.424316 762.13916 C 1297.840576 758.782227 1296.548584 754.302246 1296.548584 748.707275 C 1296.548584 743.539673 1297.840576 739.019043 1300.424316 735.141235 C 1303.008301 731.267578 1306.623535 728.297119 1311.274414 726.230103 C 1315.92334 724.163086 1321.304443 723.129517 1327.420166 723.129517 C 1336.115723 723.129517 1343.242676 725.306396 1348.796875 729.6521 C 1354.351074 734.001953 1357.429199 739.967041 1358.033447 747.543579 L 1341.757324 747.543579 C 1341.499023 744.011719 1339.968994 741.065674 1337.171631 738.693481 C 1334.37207 736.329346 1330.604248 735.141235 1325.869873 735.141235 C 1321.562988 735.141235 1318.098145 736.239868 1315.47168 738.437134 C 1312.844971 740.634399 1311.532715 743.885498 1311.532715 748.190552 C 1311.532715 750.945313 1312.373047 753.207642 1314.051514 754.969482 C 1315.72998 756.735474 1317.862061 758.135254 1320.446045 759.168701 C 1323.027832 760.202271 1326.557617 761.321289 1331.037598 762.525635 C 1336.978271 764.161377 1341.82251 765.80127 1345.568115 767.432861 C 1349.313477 769.072754 1352.499512 771.591431 1355.126221 774.989014 C 1357.752686 778.394775 1359.064941 782.935791 1359.064941 788.616211 C 1359.064941 793.181641 1357.838135 797.486572 1355.384521 801.535278 C 1352.930908 805.583984 1349.356201 808.831055 1344.664795 811.288696 C 1339.968994 813.74231 1334.437256 814.967102 1328.065186 814.967102 C 1322.036865 814.967102 1316.613037 813.913208 1311.79126 811.801392 Z"/>
        </g>
    </g>
</svg>
